<?xml version="1.0" encoding="UTF-8" standalone="no"?>
<!-- Created with Inkscape (http://www.inkscape.org/) -->

<svg
   width="512"
   height="512"
   viewBox="0 0 512 512"
   version="1.1"
   id="svg5"
   sodipodi:docname="Gaedon_symbol.svg"
   inkscape:version="1.1.2 (0a00cf5339, 2022-02-04, custom)"
   xmlns:inkscape="http://www.inkscape.org/namespaces/inkscape"
   xmlns:sodipodi="http://sodipodi.sourceforge.net/DTD/sodipodi-0.dtd"
   xmlns="http://www.w3.org/2000/svg"
   xmlns:svg="http://www.w3.org/2000/svg">
  <sodipodi:namedview
     id="namedview7"
     pagecolor="#ffffff"
     bordercolor="#666666"
     borderopacity="1.0"
     inkscape:pageshadow="2"
     inkscape:pageopacity="0.0"
     inkscape:pagecheckerboard="0"
     inkscape:document-units="px"
     showgrid="false"
     inkscape:zoom="1.7050781"
     inkscape:cx="289.13632"
     inkscape:cy="255.70676"
     inkscape:window-width="2560"
     inkscape:window-height="1413"
     inkscape:window-x="0"
     inkscape:window-y="0"
     inkscape:window-maximized="1"
     inkscape:current-layer="layer1">
    <sodipodi:guide
       position="0,0"
       orientation="512.0,0"
       id="guide1116" />
    <sodipodi:guide
       position="256,0"
       orientation="512.0,0"
       id="guide1118" />
    <sodipodi:guide
       position="512,0"
       orientation="512.0,0"
       id="guide1120" />
    <sodipodi:guide
       position="0,0"
       orientation="0,512.0"
       id="guide1122" />
    <sodipodi:guide
       position="0,256"
       orientation="0,512.0"
       id="guide1124" />
    <sodipodi:guide
       position="16.307721,511.61355"
       orientation="0,512.0"
       id="guide1126" />
  </sodipodi:namedview>
  <defs
     id="defs2">
    <clipPath
       clipPathUnits="userSpaceOnUse"
       id="clipPath1105">
      <rect
         style="opacity:0.1"
         id="rect1107"
         width="500.89386"
         height="404.42181"
         x="-10.038821"
         y="3.8608606" />
    </clipPath>
  </defs>
  <g
     inkscape:label="Layer 1"
     inkscape:groupmode="layer"
     id="layer1"
     style="display:inline">
    <rect
       style="display:inline;opacity:1;fill:#662f00;fill-opacity:1;stroke-width:0.902194"
       id="rect37"
       width="512.2124"
       height="512"
       x="-0.21238571"
       y="0"
       ry="52.455311" />
    <path
       style="fill:#fbf9ef;stroke-width:0.81018;fill-opacity:0.93757147"
       d="m -43.302978,432.36075 v -8.1018 H 215.95472 475.21241 v 8.1018 8.1018 H 215.95472 -43.302978 Z m 228.240958,-3.03818 c -0.18563,-1.22539 -0.33752,-0.2228 -0.33752,2.228 0,2.45079 0.15189,3.45339 0.33752,2.22799 0.18563,-1.22539 0.18563,-3.23059 0,-4.45599 z m 8.09452,2.0349 c -0.19379,-1.00779 -0.35971,-0.37403 -0.3687,1.40837 -0.009,1.7824 0.14957,2.60696 0.35235,1.83235 0.20278,-0.7746 0.21013,-2.23293 0.0164,-3.24072 z m 39.22636,2.40759 c -0.80015,-0.79419 -0.89321,-0.70113 -0.45354,0.45354 0.30424,0.79901 0.75727,1.24866 1.00671,0.99922 0.24945,-0.24945 5.2e-4,-0.90318 -0.55317,-1.45276 z m -14.9032,-1.8938 c -0.26922,-0.26921 -0.96801,-0.29799 -1.55285,-0.0639 -0.64631,0.25862 -0.45434,0.4506 0.48948,0.48948 0.85406,0.0352 1.33258,-0.15631 1.06337,-0.42553 z m 23.93261,-3.28266 c -0.54852,-0.22193 -1.64226,-0.23543 -2.43054,-0.0301 -0.78828,0.20541 -0.33949,0.38699 0.9973,0.4035 1.3368,0.0165 1.98175,-0.15155 1.43324,-0.37348 z M 15.159446,368.30881 c -2.70922,-2.90801 -2.72626,-9.11854 -0.037,-13.46992 1.96768,-3.18378 16.67943,-14.44248 23.73162,-18.16149 2.71551,-1.43204 6.22598,-3.60849 7.80104,-4.83655 1.57506,-1.22807 4.21827,-2.87878 5.8738,-3.66824 1.65554,-0.78948 3.01007,-1.66714 3.01007,-1.95038 0,-0.28324 -2.09634,-2.67664 -4.65854,-5.31867 -8.37539,-8.63634 -9.49771,-12.90711 -4.63334,-17.63132 3.15065,-3.05989 5.54646,-3.78105 12.56112,-3.78105 4.27062,0 5.06376,0.29777 8.92696,3.35145 3.97406,3.14132 4.59326,3.01465 1.70165,-0.34809 -2.11407,-2.45851 -1.89029,-7.49834 0.43624,-9.82487 3.08588,-3.08588 8.4632,-4.82938 13.17404,-4.27145 4.84726,0.57409 7.81671,2.02867 11.19462,5.48369 2.88051,2.94626 2.16434,3.17529 9.998314,-3.19749 5.25463,-4.27454 15.72037,-16.74509 20.2126,-24.08452 1.79758,-2.9369 4.19441,-6.30808 5.32628,-7.4915 1.13187,-1.18343 2.99366,-3.61001 4.13729,-5.3924 1.14365,-1.7824 3.11713,-4.50868 4.38553,-6.0584 2.42174,-2.95889 3.22208,-8.03865 1.29344,-8.20944 -2.92811,-0.25929 -5.2723,0.41647 -7.08908,2.04356 -1.11399,0.99769 -3.84835,2.9111 -6.07635,4.25202 -7.51544,4.52317 -18.83842,10.80789 -19.47225,10.80789 -0.34612,0 -1.81607,0.90518 -3.26655,2.01152 -5.930174,4.52316 -14.235304,7.89858 -23.396184,9.50881 -11.69159,2.05505 -18.42847,2.16476 -23.61224,0.38451 -6.9151,-2.37483 -10.09091,-7.14629 -9.40262,-14.12689 0.22625,-2.29453 0.97272,-3.05113 5.8962,-5.97611 3.10043,-1.84193 8.7078,-4.40737 12.46083,-5.70099 6.83506,-2.35595 12.8221,-5.85233 18.26959,-10.6693 1.60012,-1.41493 4.34853,-3.41891 6.10757,-4.4533 1.75905,-1.0344 6.11491,-3.69725 9.67971,-5.91745 3.564794,-2.22021 10.309544,-6.08918 14.988334,-8.59773 4.67879,-2.50853 12.69958,-7.36495 17.82397,-10.79203 5.12439,-3.42708 11.86914,-7.56928 14.98833,-9.20491 7.94516,-4.16624 16.67759,-9.21632 30.76895,-17.7941 6.67414,-4.06272 14.23628,-8.18929 16.80477,-9.17016 6.02224,-2.29981 15.27533,-3.54514 25.39553,-3.41787 9.04372,0.11373 19.15127,-1.88503 35.18982,-6.95878 5.12439,-1.62109 14.78579,-4.57021 21.46978,-6.5536 18.42165,-5.46639 19.05358,-5.68644 32.25346,-11.23069 11.68486,-4.9079 35.98769,-16.1092 49.16966,-22.66255 3.34199,-1.66145 14.09713,-6.67725 23.90031,-11.14622 23.84691,-10.87107 38.54567,-18.228344 47.5698,-23.810442 4.10971,-2.54216 9.12412,-5.540415 11.14314,-6.662789 7.66488,-4.260911 24.67066,-15.530002 30.60944,-20.283727 l 3.44327,-2.756179 v 64.412477 64.41248 l -1.82291,0.42094 c -2.56663,0.59268 -22.49706,6.57971 -29.77412,8.94405 -3.342,1.08582 -10.45133,3.33362 -15.79852,4.9951 -5.34719,1.66148 -12.27423,3.91799 -15.39343,5.01447 -38.99875,13.70912 -50.48977,17.11126 -77.7773,23.02752 -15.16877,3.28876 -31.60773,8.20445 -38.03413,11.37322 -1.80679,0.8909 -5.27182,2.37673 -7.70008,3.30185 -4.90654,1.8693 -11.05063,7.15707 -14.85808,12.78724 -1.35603,2.0052 -3.95449,5.29647 -5.77436,7.31393 -1.81988,2.01747 -4.76718,5.79998 -6.54958,8.40558 -4.00614,5.85639 -11.7935,15.15106 -19.41184,23.16915 -3.17537,3.34199 -7.21605,7.88432 -8.9793,10.09407 -3.94695,4.94645 -4.66974,5.67885 -9.71025,9.8394 -5.20662,4.29765 -6.47568,4.92757 -12.95418,6.43003 -2.96531,0.68771 -6.72726,2.08867 -8.35989,3.11325 -1.63264,1.02459 -7.1611,4.05425 -12.28549,6.73258 -15.84177,8.27992 -17.75715,9.42473 -23.75301,14.197 -3.20022,2.54714 -8.55293,5.80128 -11.89493,7.23143 -3.34199,1.43015 -6.63656,3.06918 -7.32127,3.64229 -4.44873,3.72367 -12.45878,4.53104 -18.04195,1.81853 l -3.53168,-1.71583 -6.4147,3.52381 c -5.54074,3.04372 -7.07696,3.52573 -11.27576,3.5379 -3.95618,0.0114 -5.84139,-0.49452 -10.127264,-2.7181 -7.27542,-3.77463 -14.09782,-5.80141 -16.84129,-5.00316 -1.20887,0.35174 -4.38543,1.5625 -7.05902,2.69057 -2.6736,1.12808 -8.28959,3.20696 -12.47999,4.61973 -4.1904,1.41279 -9.4413,3.44785 -11.66866,4.52236 -2.22736,1.07452 -5.36132,2.16649 -6.96434,2.42661 -1.60302,0.26012 -5.68301,1.73291 -9.06664,3.27288 -4.0308,1.83452 -7.96695,2.96943 -11.41562,3.29147 -4.79579,0.44783 -5.41908,0.3246 -7.01338,-1.38668 z M -43.290572,67.172005 c 0.009,-2.783352 0.229751,-3.512039 0.797774,-2.633086 1.035149,1.601779 1.035149,6.481442 0,6.481442 -0.445599,0 -0.804597,-1.73176 -0.797774,-3.848356 z"
       id="path613"
       clip-path="url(#clipPath1105)"
       transform="matrix(1.0164988,0,0,1.0164988,28.947196,9.8090449)" />
  </g>
</svg>
